<?xml version="1.0" encoding="utf-8"?>
<!-- Generator: Adobe Illustrator 17.1.0, SVG Export Plug-In . SVG Version: 6.00 Build 0)  -->
<!DOCTYPE svg PUBLIC "-//W3C//DTD SVG 1.1//EN" "http://www.w3.org/Graphics/SVG/1.1/DTD/svg11.dtd">
<svg version="1.1" id="Layer_1" xmlns="http://www.w3.org/2000/svg" xmlns:xlink="http://www.w3.org/1999/xlink" x="0px" y="0px"
	 viewBox="0 0 64 50.3" enable-background="new 0 0 64 50.3" xml:space="preserve">
<path fill-rule="evenodd" clip-rule="evenodd" fill="#2AAF4A" d="M64,12.3c0-3.5-2.9-6.7-6.4-6.4c-1.3,0.1-5.2,1-9.6,2.1
	c4.4-1.2,8.2-2.4,9.4-3c3.2-1.6,4.1-5.7,2.3-8.8C58-6.7,53.9-8,51-6c-1.1,0.7-4,3.5-7.3,6.7c3.2-3.2,5.9-6.2,6.7-7.3
	c2-2.9,0.7-7-2.4-8.7c-3.1-1.8-7.2-0.8-8.8,2.3c-0.6,1.2-1.7,5-3,9.4c1.1-4.4,2-8.3,2.1-9.6c0.2-3.5-2.9-6.4-6.4-6.4
	c-3.5,0-6.7,2.9-6.4,6.4c0.1,1.3,1,5.2,2.1,9.6c-1.2-4.4-2.4-8.2-3-9.4c-1.6-3.2-5.7-4.1-8.8-2.3c-3.1,1.8-4.3,5.8-2.4,8.7
	c0.7,1.1,3.5,4,6.7,7.3C17.1-2.5,14.1-5.3,13-6c-2.9-2-7-0.7-8.8,2.4C2.5-0.6,3.4,3.5,6.6,5.1c1.2,0.6,5,1.7,9.4,3
	c-4.4-1.1-8.3-2-9.6-2.1C2.9,5.7,0,8.8,0,12.3c0,3.5,2.9,6.7,6.4,6.4c1.3-0.1,5.2-1,9.6-2.1c-4.4,1.2-8.2,2.4-9.4,3
	c-3.2,1.6-4.1,5.7-2.3,8.8c1.8,3.1,5.8,4.3,8.8,2.4c1.1-0.7,4-3.5,7.3-6.7c-3.2,3.2-5.9,6.2-6.7,7.3c-2,2.9-0.7,7,2.4,8.7
	c3.1,1.8,7.2,0.9,8.8-2.3c0.6-1.2,1.7-5,3-9.4c-1.1,4.4-2,8.3-2.1,9.6c-0.2,3.5,2.9,6.4,6.4,6.4c3.5,0,6.7-2.9,6.4-6.4
	c-0.1-1.3-1-5.2-2.1-9.6c1.2,4.4,2.4,8.2,3,9.4c1.6,3.2,5.7,4.1,8.8,2.3c3.1-1.8,4.3-5.8,2.4-8.7c-0.7-1.1-3.5-4-6.7-7.3
	c3.2,3.2,6.2,5.9,7.3,6.7c2.9,2,7,0.7,8.8-2.4c1.8-3.1,0.9-7.2-2.3-8.8c-1.2-0.6-5-1.7-9.4-3c4.4,1.1,8.3,2,9.6,2.1
	C61.2,19,64,15.9,64,12.3z"/>
<text transform="matrix(1 0 0 1 15.9403 19.1688)" fill="#FFFFFF" font-family="'MyriadPro-Regular'" font-size="18">sale!</text>
</svg>
